<?xml version="1.0" encoding="utf-8"?>
<!-- Generator: Adobe Illustrator 26.3.1, SVG Export Plug-In . SVG Version: 6.00 Build 0)  -->
<svg version="1.1" id="Layer_1" xmlns="http://www.w3.org/2000/svg" xmlns:xlink="http://www.w3.org/1999/xlink" x="0px" y="0px"
	 viewBox="0 0 140 40" style="enable-background:new 0 0 140 40;" xml:space="preserve">
<style type="text/css">
	.st0{fill:#034EA1;}
	.st1{fill:#E5E5E5;}
	.st2{fill:#AFD135;}
	.st3{fill:#0D73BB;}
</style>
<g>
	<path class="st0" d="M37.3224,29.1088c-4.9601-8.5886-9.9187-17.178-14.878-25.7666c-0.412-0.7133-0.8113-1.4329-1.2384-2.1366
		c-0.62-1.0217-2.0019-1.0273-2.6419-0.0215c-0.0574,0.0893-0.1076,0.1833-0.161,0.2749
		c-3.9305,6.8067-7.861,13.6133-11.7915,20.4207c-1.4002,2.4259-2.7988,4.8534-4.2015,7.2784
		c-0.1618,0.2813-0.2861,0.569-0.2773,0.9268c-0.0112,0.1905,0.0422,0.3953,0.1259,0.5929
		c0.1817,0.4319,0.5347,0.6718,0.9404,0.8703c3.7313,1.8282,7.4593,3.6619,11.189,5.4941c1.5724,0.773,3.1479,1.5405,4.7171,2.3199
		c0.5292,0.263,1.0416,0.2702,1.5628-0.0064c0.2112-0.1116,0.4287-0.212,0.6431-0.3172c3.9321-1.9318,7.8642-3.8636,11.7955-5.7953
		c1.2153-0.5977,2.4307-1.1946,3.6436-1.7971c0.5937-0.2941,0.8822-0.785,0.8782-1.4441
		C37.6261,29.6738,37.4842,29.3885,37.3224,29.1088z M22.0475,7.177c3.8755,6.7054,7.747,13.4125,11.617,20.1211
		c0.0837,0.1458,0.2096,0.2789,0.2064,0.4654c-0.1713-0.0725-0.3443-0.1395-0.5124-0.2184
		c-0.6726-0.3148-1.342-0.6368-2.0155-0.9507c-3.3647-1.57-6.7293-3.1407-10.0972-4.7043c-0.2216-0.1036-0.3443-0.2295-0.306-0.4806
		c0.008-0.0526,0.0008-0.106,0.0008-0.1594c0-5.1482,0-10.2956,0.0008-15.4439c0-0.1586,0.0096-0.318,0.0143-0.4774
		C21.3582,5.9218,21.6897,6.5578,22.0475,7.177z M6.6953,26.2597c3.9369-6.8242,7.8769-13.6452,11.817-20.467
		c0.0861-0.149,0.1817-0.2917,0.2733-0.4375c0.0056,1.2074,0.0151,2.4147,0.0159,3.6221c0.0016,4.1146-0.0032,8.2284,0.0072,12.343
		c0.0008,0.31-0.0861,0.4774-0.3777,0.6033c-0.7427,0.3204-1.4704,0.675-2.2027,1.0185c-2.7271,1.2775-5.4526,2.5582-8.1798,3.8341
		c-0.7324,0.3427-1.4711,0.6734-2.2067,1.0097C6.0848,27.2543,6.4044,26.7642,6.6953,26.2597z M30.723,31.8956
		c-3.5121,1.7278-7.0266,3.4499-10.5371,5.1817c-0.2088,0.1028-0.3746,0.1211-0.5913,0.0143
		c-4.5577-2.2482-9.1194-4.4892-13.6794-6.7317c-0.0709-0.0351-0.1379-0.0789-0.2064-0.118
		c0.1275-0.0693,0.2526-0.1458,0.3841-0.2072c1.4903-0.6965,2.9821-1.3891,4.4724-2.0856c2.9798-1.3938,5.9603-2.7869,8.9369-4.1887
		c0.2638-0.1243,0.4877-0.1331,0.7531-0.008c2.6522,1.2504,5.3076,2.4928,7.963,3.7352c1.4058,0.6575,2.8164,1.3054,4.219,1.9692
		c0.5379,0.255,1.0926,0.4766,1.601,0.7922C32.9337,30.7983,31.8307,31.3513,30.723,31.8956z"/>
	<path class="st0" d="M101.3635,24.0618c1.1328-1.7465,2.6779-2.7515,4.7985-2.7056c2.1132,0.0458,3.6616,1.0167,4.6555,2.9162
		c0.1404-0.1873,0.2592-0.345,0.3774-0.5032c1.827-2.4464,4.5359-2.7682,6.6814-2.1562c1.8174,0.5184,2.9044,1.7801,3.4196,3.5657
		c0.185,0.6412,0.266,1.2986,0.2656,1.9667c-0.0014,2.762-0.0005,5.524-0.0006,8.2859c0,0.1593,0.0026,0.3185-0.0477,0.4733
		c-0.1619,0.4983-0.6238,0.786-1.184,0.7355c-0.4996-0.0451-0.9096-0.4556-0.9561-0.965c-0.012-0.1318-0.0064-0.2654-0.0064-0.3981
		c-0.0003-2.4035,0.001-4.8069-0.0011-7.2104c-0.0006-0.6787-0.0508-1.3529-0.2358-2.0105
		c-0.4493-1.5979-1.628-2.5486-3.2385-2.6684c-2.2078-0.1642-4.0278,1.1944-4.3975,3.6325c-0.0639,0.4217-0.0751,0.8458-0.075,1.271
		c0.0005,2.3238,0.0003,4.6476,0.0001,6.9714c0,0.1195,0.0043,0.2394-0.0031,0.3584c-0.0332,0.5344-0.436,0.9651-0.9477,1.0178
		c-0.5918,0.061-1.0627-0.249-1.2171-0.7958c-0.0479-0.1696-0.0439-0.3413-0.0439-0.5137c-0.0001-2.43-0.0004-4.86,0.0001-7.29
		c0.0001-0.5985-0.0337-1.1912-0.1694-1.7789c-0.7842-3.3963-4.6035-3.5185-6.3143-1.8268
		c-0.9394,0.9289-1.3672,2.0719-1.4154,3.3649c-0.0321,0.862-0.0132,1.7259-0.014,2.589c-0.0014,1.6333-0.0004,3.2666-0.0005,4.8999
		c0,0.1062,0.0037,0.2127-0.0021,0.3186c-0.033,0.603-0.4578,1.0229-1.0451,1.036c-0.6139,0.0137-1.0879-0.3827-1.1563-0.9733
		c-0.0137-0.1181-0.0072-0.2387-0.0072-0.3582c-0.0003-4.1297-0.0003-8.2593-0.0002-12.389c0-0.1062-0.0055-0.213,0.0033-0.3186
		c0.0497-0.5973,0.5255-1.0383,1.1102-1.0329c0.6122,0.0057,1.0781,0.4584,1.0943,1.082c0.0117,0.4508,0.0023,0.9022,0.0023,1.3533
		C101.3164,24.0242,101.3399,24.043,101.3635,24.0618z"/>
	<path class="st0" d="M65.3029,22.7302c-0.0518-2.6339-1.2783-4.486-3.6834-5.5483c-1.146-0.5069-2.3637-0.6973-3.6093-0.7069
		c-1.5269-0.0112-3.0539-0.0024-4.5808-0.0024c-0.6766,0-1.354-0.008-2.0314,0.0024c-0.6391,0.0104-1.099,0.471-1.1237,1.1061
		c-0.0048,0.1195-0.0016,0.2391-0.0016,0.3586v17.2864c0,0.1331-0.0056,0.2662,0.0048,0.3985
		c0.043,0.5212,0.4654,0.9627,0.9635,1.0145c0.5842,0.0606,1.1077-0.2805,1.2568-0.8169c0.0438-0.1562,0.0335-0.3164,0.0335-0.475
		c0.0008-1.7923,0.0008-3.5846,0.0008-5.3769c0-0.1068,0.0056-0.2128,0-0.3188c-0.0096-0.1578,0.0669-0.2144,0.2144-0.2064
		c0.0932,0.0048,0.1865,0,0.2789,0c1.5405,0,3.081,0.0112,4.6206-0.0032c1.3269-0.0127,2.614-0.2502,3.8357-0.7834
		c1.04-0.4543,1.9405-1.095,2.6315-2.0059C64.9921,25.4924,65.3316,24.1703,65.3029,22.7302z M60.7739,26.6408
		c-0.9093,0.4837-1.8903,0.7077-2.9088,0.7252c-1.6712,0.0279-3.344,0.0136-5.0159,0.0143c-0.3116,0-0.3164-0.0072-0.3164-0.3435
		c-0.0016-1.354-0.0008-2.7072-0.0008-4.0612v-3.9409c0-0.0932,0.004-0.1857,0.0008-0.2789
		c-0.004-0.1347,0.0646-0.1921,0.1937-0.1913c0.0797,0,0.1586-0.0024,0.2383-0.0024c1.4863,0,2.9726-0.0056,4.4589,0.0024
		c0.9316,0.0048,1.8569,0.0765,2.7447,0.3897c1.0655,0.3762,1.9429,0.989,2.433,2.0402
		C63.3855,22.6776,63.2516,25.3219,60.7739,26.6408z"/>
	<path class="st0" d="M89.6218,36.8134c-2.0329-0.0406-3.8821-0.6552-5.565-1.79c-0.3639-0.2454-0.5406-0.5795-0.476-1.0187
		c0.058-0.3946,0.3018-0.6436,0.6732-0.7609c0.3257-0.1028,0.6226-0.0258,0.9038,0.1674c0.615,0.4226,1.2698,0.7752,1.9708,1.0329
		c1.1243,0.4133,2.2771,0.632,3.4771,0.4306c0.6565-0.1101,1.2488-0.3644,1.7089-0.8657c0.8347-0.9095,0.6912-2.2401-0.3165-2.9483
		c-0.5503-0.3867-1.1751-0.6118-1.8083-0.8149c-0.8468-0.2716-1.713-0.4794-2.5529-0.7745
		c-0.5019-0.1764-0.9928-0.3767-1.4567-0.6389c-2.2095-1.249-2.6187-4.0564-0.8566-5.8973
		c0.7245-0.7569,1.6317-1.1732,2.6462-1.3666c1.5155-0.2889,2.9871-0.0638,4.4306,0.4183c0.5292,0.1768,1.041,0.3983,1.5352,0.6594
		c0.1793,0.0947,0.3356,0.2144,0.454,0.3795c0.2473,0.3447,0.2644,0.7855,0.0303,1.1197c-0.2452,0.3501-0.5916,0.4758-1.0089,0.4118
		c-0.1734-0.0266-0.3242-0.1123-0.4767-0.1947c-0.9304-0.503-1.908-0.8697-2.963-1.0028c-0.7335-0.0926-1.4604-0.0726-2.1576,0.2059
		c-0.6446,0.2575-1.1482,0.6668-1.35,1.3632c-0.2101,0.725-0.0311,1.3363,0.5619,1.8152c0.3444,0.2781,0.7375,0.4708,1.1438,0.638
		c0.627,0.258,1.2753,0.4536,1.9234,0.6499c0.8132,0.2463,1.6252,0.4968,2.3943,0.8649c0.5783,0.2768,1.1184,0.6092,1.5653,1.0786
		c0.5441,0.5716,0.8392,1.2493,0.8869,2.0361c0.0675,1.1133-0.1646,2.1408-0.8861,3.0203
		c-0.7026,0.8565-1.6338,1.3361-2.6915,1.5969C90.7913,36.7694,90.2115,36.8284,89.6218,36.8134z"/>
	<path class="st0" d="M69.0041,25.2228c0.4872-0.8271,1.0091-1.5741,1.6858-2.208c0.8118-0.7605,1.7359-1.3078,2.8503-1.4857
		c0.1824-0.0291,0.3698-0.041,0.5546-0.0393c0.621,0.0059,1.0249,0.3754,1.0912,0.9856c0.066,0.607-0.2871,1.1051-0.8789,1.2354
		c-0.1164,0.0256-0.2356,0.0391-0.3532,0.0595c-2.2953,0.3982-3.7935,1.725-4.5386,3.9156
		c-0.2754,0.8098-0.4008,1.6499-0.4042,2.5049c-0.0067,1.7124-0.0055,3.4248-0.007,5.1371
		c-0.0002,0.1858,0.0014,0.3699-0.0573,0.5512c-0.1731,0.5345-0.6182,0.8188-1.2013,0.7596
		c-0.5106-0.0519-0.9151-0.4803-0.9534-1.0138c-0.0076-0.1057-0.0034-0.2123-0.0034-0.3185
		c-0.0001-4.1283-0.0001-8.2567-0.0001-12.385c0-0.0796-0.0016-0.1594,0.0009-0.2389c0.0204-0.6441,0.4929-1.1173,1.1099-1.1125
		c0.6224,0.0049,1.0899,0.4692,1.1013,1.1203c0.0121,0.6901,0.003,1.3805,0.0032,2.0708
		C69.0041,24.915,69.0041,25.0689,69.0041,25.2228z"/>
	<path class="st0" d="M80.1947,29.0962c0,2.0584,0,4.1167,0,6.1751c0,0.1062,0.0031,0.2126-0.0014,0.3187
		c-0.0273,0.6458-0.4613,1.0588-1.1034,1.0522c-0.6289-0.0065-1.0667-0.4405-1.0871-1.0787
		c-0.0025-0.0796-0.0011-0.1593-0.0011-0.239c0-4.1433-0.0002-8.2866,0.0006-12.4299c0-0.1853-0.0162-0.3723,0.0408-0.5538
		c0.1609-0.5123,0.6731-0.8361,1.2087-0.7636c0.524,0.0709,0.9107,0.4909,0.9403,1.0252c0.0066,0.1192,0.0025,0.239,0.0025,0.3585
		C80.1948,25.006,80.1947,27.0511,80.1947,29.0962z"/>
	<path class="st0" d="M77.7876,20.2871c-0.1062-1.2466,1.0642-1.6114,1.8968-1.2807c0.4454,0.1769,0.689,0.5238,0.717,1.0087
		c0.0076,0.1322,0.0042,0.2652,0.0013,0.3978c-0.0135,0.6079-0.3795,1.0442-0.9854,1.1769
		c-0.6364,0.1394-1.2803-0.1387-1.5267-0.657C77.7905,20.722,77.7764,20.4992,77.7876,20.2871z"/>
	<path class="st1" d="M34.0382,30.2492c-0.5084-0.3156-1.0631-0.5371-1.601-0.7922c-1.4026-0.6639-2.8132-1.3118-4.219-1.9692
		c-2.6554-1.2424-5.3108-2.4849-7.963-3.7352c-0.2654-0.1251-0.4893-0.1164-0.7531,0.008
		c-2.9766,1.4018-5.9571,2.7949-8.9369,4.1887c-1.4903,0.6965-2.9821,1.3891-4.4724,2.0856
		c-0.1315,0.0614-0.2566,0.1379-0.3841,0.2072c0.0327-0.2279,0.2367-0.2733,0.3961-0.3483
		c1.8226-0.8615,3.6492-1.7158,5.4758-2.5677c1.8513-0.8639,3.7018-1.7286,5.5515-2.5948c0.781-0.3658,1.5684-0.7172,2.347-1.0878
		c0.2829-0.1347,0.561-0.1339,0.8432,0.0032c1.719,0.832,3.4587,1.6202,5.1881,2.4315c2.3167,1.0886,4.6334,2.1788,6.9589,3.2483
		c0.4343,0.1992,0.8519,0.4327,1.2926,0.6176C33.8964,30.0005,34.0295,30.0731,34.0382,30.2492z"/>
	<path class="st1" d="M33.8709,27.7635c-0.1929,0.1012-0.3634,0.0096-0.53-0.0693c-2.6012-1.2368-5.2199-2.4354-7.8251-3.6659
		c-1.3564-0.6407-2.712-1.2831-4.0811-1.8959c-0.4463-0.1992-0.6511-0.4622-0.6503-0.9627
		c0.0104-5.0853,0.0056-10.1713,0.0096-15.2566c0.0008-0.2032-0.0486-0.4327,0.1618-0.5842
		c-0.0048,0.1594-0.0143,0.3188-0.0143,0.4774c-0.0008,5.1482-0.0008,10.2956-0.0008,15.4439c0,0.0534,0.0072,0.1068-0.0008,0.1594
		c-0.0383,0.251,0.0845,0.3769,0.306,0.4806c3.3679,1.5636,6.7325,3.1344,10.0972,4.7043c0.6734,0.314,1.3428,0.636,2.0155,0.9507
		C33.5266,27.6241,33.6995,27.691,33.8709,27.7635z"/>
	<path class="st1" d="M18.9275,21.2374c0.0008,0.4303-0.1777,0.6878-0.5579,0.8655c-1.405,0.6583-2.8132,1.3102-4.2174,1.9708
		c-1.8959,0.8918-3.7974,1.7724-5.6941,2.6626c-0.7085,0.3331-1.4114,0.6774-2.1302,0.985
		c-0.153,0.0661-0.3068,0.1777-0.4861,0.0646c0.7356-0.3363,1.4743-0.667,2.2067-1.0097c2.7271-1.2759,5.4526-2.5566,8.1798-3.8341
		c0.7324-0.3435,1.46-0.6981,2.2027-1.0185c0.2917-0.1259,0.3785-0.2933,0.3777-0.6033c-0.0104-4.1146-0.0056-8.2284-0.0072-12.343
		c-0.0008-1.2074-0.0104-2.4147-0.0159-3.6221c0.157,0.1434,0.1355,0.3379,0.1355,0.5204
		C18.9243,10.9959,18.9219,16.1163,18.9275,21.2374z"/>
	<path class="st2" d="M34.8591,29.8682c-0.2765,0.1195-0.5475,0.2534-0.8208,0.3809c-0.5084-0.3156-1.0631-0.5371-1.601-0.7922
		c-1.4026-0.6639-2.8132-1.3118-4.219-1.9692c-2.6554-1.2424-5.3108-2.4849-7.963-3.7352c-0.2654-0.1251-0.4893-0.1164-0.7531,0.008
		c-2.9766,1.4018-5.9571,2.7949-8.9369,4.1887c-1.4903,0.6965-2.9821,1.3891-4.4724,2.0856
		c-0.1315,0.0614-0.2566,0.1379-0.3841,0.2072c-0.3411-0.1395-0.6726-0.2981-1.0113-0.5045
		c0.3785-0.6639,0.7252-1.3285,1.1444-1.9517c0.7356-0.3363,1.4743-0.667,2.2067-1.0097c2.7271-1.2759,5.4526-2.5566,8.1798-3.8341
		c0.7324-0.3435,1.46-0.6981,2.2027-1.0185c0.2917-0.1259,0.3785-0.2933,0.3777-0.6033c-0.0104-4.1146-0.0056-8.2284-0.0072-12.343
		c-0.0008-1.2074-0.0104-2.4147-0.0159-3.6221c0.3491-0.6224,0.6981-1.244,1.083-1.9294c0.3993,0.6631,0.769,1.2679,1.087,1.9031
		c-0.0048,0.1594-0.0143,0.3188-0.0143,0.4774c-0.0008,5.1482-0.0008,10.2956-0.0008,15.4439c0,0.0534,0.0072,0.1068-0.0008,0.1594
		c-0.0383,0.251,0.0845,0.3769,0.306,0.4806c3.3679,1.5636,6.7325,3.1344,10.0972,4.7043c0.6734,0.314,1.3428,0.636,2.0155,0.9507
		c0.1682,0.0789,0.3411,0.1458,0.5124,0.2184c0.0398,0.0327,0.0932,0.0566,0.1179,0.098c0.3244,0.5571,0.6415,1.1189,0.9699,1.6728
		C35.0567,29.6985,35.0376,29.7917,34.8591,29.8682z"/>
	<g>
		<path class="st0" d="M61.6472,2.9276h-1.863c-0.1105,0-0.2052,0.0905-0.2052,0.1961V8.433L53.5007,3.365
			c-0.3947-0.3318-0.8368-0.4977-1.2788-0.4977c-0.4105,0-1.0894,0.1508-1.0894,1.2066v7.1946c0,0.1056,0.0947,0.1961,0.2052,0.1961
			h1.863c0.1105,0,0.2052-0.0905,0.2052-0.1961V5.9442l6.1415,5.1282c0.3631,0.3167,0.7578,0.4676,1.1841,0.4676
			c0.4263,0,1.1209-0.1659,1.1209-1.267V3.1237C61.8524,3.003,61.7577,2.9276,61.6472,2.9276z"/>
		<path class="st0" d="M73.0618,2.9276h-1.8314c-0.1105,0-0.2052,0.0905-0.2052,0.1961v5.7165c0,0.4676-0.6157,0.7089-1.8156,0.7089
			h-2.5103c-1.2315,0-1.8472-0.2413-1.8472-0.7089V3.1237c0-0.1056-0.0947-0.1961-0.2052-0.1961h-1.863
			c-0.1105,0-0.2052,0.0905-0.2052,0.1961v5.7919c0,0.4072,0.0789,0.7542,0.2052,1.0256c0.1421,0.2866,0.3315,0.5128,0.5526,0.7089
			c0.221,0.1961,0.4894,0.3469,0.7894,0.4525c0.2842,0.1056,0.5999,0.181,0.8999,0.2413c0.3158,0.0603,0.6315,0.0905,0.9631,0.0905
			c0.3158,0.0151,0.6157,0.0151,0.8999,0.0151h2.0366c1.4841,0,2.5576-0.1961,3.2523-0.6033
			c0.7104-0.4223,1.0736-1.0709,1.0736-1.9457V3.1237C73.267,3.003,73.1723,2.9276,73.0618,2.9276z"/>
		<path class="st0" d="M83.7817,4.632V3.1086c0-0.1056-0.0947-0.1961-0.2052-0.1961h-9.3938c-0.1105,0-0.2052,0.0905-0.2052,0.1961
			V4.632c0,0.1056,0.0947,0.1961,0.2052,0.1961h3.5523v6.4405c0,0.1056,0.0947,0.1961,0.2052,0.1961h1.863
			c0.1105,0,0.2052-0.0905,0.2052-0.1961V4.8281h3.5681C83.7028,4.8281,83.7817,4.7376,83.7817,4.632z"/>
		<path class="st0" d="M88.5497,3.5008c-0.3158-0.4072-0.7262-0.6184-1.2157-0.6184s-0.8999,0.2112-1.1999,0.6335l-5.5415,7.6471
			c-0.0474,0.0603-0.0474,0.1357-0.0158,0.1961c0.0316,0.0603,0.1105,0.1056,0.1737,0.1056h2.1945
			c0.0631,0,0.1421-0.0302,0.1737-0.0905l1.4367-2.1116h5.5099l1.4683,2.1116c0.0316,0.0603,0.0947,0.0905,0.1737,0.0905h2.084
			c0.0789,0,0.1421-0.0452,0.1737-0.1056s0.0316-0.1357-0.0158-0.1961L88.5497,3.5008z M85.9131,7.3319l1.3735-1.8854l1.4051,1.8854
			H85.9131z"/>
		<path class="st0" d="M105.0164,2.9276h-1.863c-0.1105,0-0.2052,0.0905-0.2052,0.1961V8.433L96.8698,3.365
			c-0.3947-0.3318-0.8368-0.4977-1.2946-0.4977c-0.4105,0-1.0736,0.1508-1.0736,1.2066v7.1946c0,0.1056,0.0947,0.1961,0.2052,0.1961
			h1.863c0.1105,0,0.2052-0.0905,0.2052-0.1961V5.9442l6.1415,5.1282c0.3631,0.3167,0.7578,0.4676,1.1841,0.4676
			c0.4263,0,1.1209-0.1659,1.1209-1.267V3.1237C105.2216,3.003,105.1269,2.9276,105.0164,2.9276z"/>
		<path class="st0" d="M108.0003,2.9276h-1.863c-0.1105,0-0.2052,0.0905-0.2052,0.1961v8.1449c0,0.1056,0.0947,0.1961,0.2052,0.1961
			h1.863c0.1105,0,0.2052-0.0905,0.2052-0.1961V3.1237C108.2055,3.003,108.1108,2.9276,108.0003,2.9276z"/>
		<path class="st2" d="M121.9409,11.1328l-4.8942-3.9367l4.8942-3.9668c0.0632-0.0603,0.0947-0.1357,0.0632-0.2112
			c-0.0316-0.0754-0.1105-0.1207-0.1895-0.1207h-2.4787c-0.0474,0-0.0947,0.0151-0.1263,0.0452l-3.7259,2.9864l-3.7575-3.0166
			c-0.0316-0.0302-0.0789-0.0452-0.1263-0.0452h-2.4787c-0.0789,0-0.1579,0.0452-0.1895,0.1207s0,0.1659,0.0631,0.2112
			l4.8942,3.9668l-4.8942,3.9367c-0.0631,0.0452-0.0947,0.1357-0.0631,0.2112s0.1105,0.1207,0.1895,0.1207h2.605
			c0.0474,0,0.0947-0.0151,0.1263-0.0452l3.6154-2.9563l3.6312,2.9563c0.0316,0.0302,0.0789,0.0452,0.1263,0.0452h2.5892
			c0.0789,0,0.1579-0.0452,0.1895-0.1207C122.0356,11.2686,122.0041,11.1781,121.9409,11.1328z"/>
		<g>
			<path class="st3" d="M123.8828,10.9066c0,0.3771-0.3158,0.6787-0.7262,0.6787s-0.7262-0.3017-0.7262-0.6787
				c0-0.3771,0.3158-0.6787,0.7262-0.6787S123.8828,10.5295,123.8828,10.9066z M122.604,10.9066c0,0.3017,0.2368,0.543,0.5526,0.543
				c0.3,0,0.5368-0.2413,0.5368-0.543s-0.2368-0.543-0.5526-0.543C122.8408,10.3636,122.604,10.6049,122.604,10.9066z
				 M123.0461,11.2535h-0.1579v-0.6787c0.0631-0.0151,0.1579-0.0151,0.2684-0.0151c0.1263,0,0.1895,0.0151,0.2368,0.0603
				c0.0474,0.0302,0.0789,0.0754,0.0789,0.1508c0,0.0754-0.0632,0.1357-0.1421,0.1659v0.0151
				c0.0631,0.0151,0.1105,0.0754,0.1263,0.1659c0.0158,0.1056,0.0316,0.1357,0.0474,0.1659h-0.1737
				c-0.0158-0.0302-0.0316-0.0754-0.0631-0.1659c-0.0158-0.0754-0.0631-0.1056-0.1421-0.1056h-0.0789V11.2535z M123.0461,10.8764
				h0.0789c0.0947,0,0.1579-0.0302,0.1579-0.1056c0-0.0603-0.0474-0.1056-0.1579-0.1056c-0.0474,0-0.0789,0-0.0947,0.0151v0.1961
				H123.0461z"/>
		</g>
	</g>
</g>
</svg>
