<?xml version="1.0" encoding="utf-8"?>
<svg xmlns="http://www.w3.org/2000/svg" xmlns:xlink="http://www.w3.org/1999/xlink" version="1.1" x="0px" y="0px" viewBox="0 0 90 30" style="enable-background:new 0 0 90 30;" xml:space="preserve">
<style type="text/css">
	.st0{fill:#ED1944;}
	.st1{fill:#4E4540;}
</style>
    <g id="Guides">
</g>
    <g id="Image">
</g>
    <g id="Paths">
	<g>
		<g>
			<path class="st0" d="M15.1,8.5H2.2c-0.8,0-1.5,0.7-1.5,1.5v3.5h3.6v-0.6c0-0.4,0.4-0.8,0.8-0.8h7.1c0.4,0,0.8,0.4,0.8,0.8v0.6     h3.6V10C16.6,9.2,15.9,8.5,15.1,8.5z"/>
            <path class="st0" d="M13,19.6c0,0.4-0.4,0.8-0.8,0.8H5.1c-0.4,0-0.8-0.4-0.8-0.8v-0.6H0.8v3.5c0,0.8,0.7,1.5,1.5,1.5h12.9     c0.8,0,1.5-0.7,1.5-1.5v-3.5H13V19.6z"/>
            <rect x="0.8" y="14.5" class="st0" width="3.6" height="3.6"/>
            <rect x="13" y="14.5" class="st0" width="3.6" height="3.6"/>
		</g>
	</g>
        <path class="st1" d="M88.1,19.3c0-0.6-0.5-1-1-1c-0.6,0-1,0.5-1,1c0,0.6,0.5,1,1,1C87.6,20.3,88.1,19.8,88.1,19.3z M87.1,20   c-0.4,0-0.8-0.3-0.8-0.8s0.3-0.8,0.8-0.8s0.8,0.3,0.8,0.8C87.8,19.7,87.5,20,87.1,20z"/>
        <path class="st1" d="M87.5,19.1L87.5,19.1c0-0.1,0-0.2-0.1-0.2s-0.1-0.1-0.3-0.1h-0.4v1h0.2v-0.3h0.1l0.2,0.3h0.2l-0.2-0.4   C87.4,19.3,87.5,19.2,87.5,19.1z M87.2,19.1c0,0.1-0.1,0.1-0.2,0.1h-0.1V19h0.1C87.2,18.9,87.2,19,87.2,19.1L87.2,19.1z"/>
        <path class="st1" d="M27.6,16.3v-0.1c0-2.4-1.6-4.1-3.7-4.1c-2.1,0-3.7,1.8-3.7,4.1v0.1c0,2.4,1.6,4.1,3.7,4.1   C26,20.4,27.6,18.7,27.6,16.3z M21.9,16.3L21.9,16.3c0-1.6,0.8-2.7,2-2.7c1.2,0,2,1.1,2,2.6v0.1c0,1.5-0.8,2.6-2,2.6   C22.7,18.9,21.9,17.8,21.9,16.3z"/>
        <path class="st1" d="M35.8,16.4v-0.2c0-2.7-1.5-4.1-3.1-4.1c-1.1,0-1.9,0.7-2.3,1.4v-1.3h-1.7v10.3h1.7v-3.5   c0.5,0.7,1.2,1.4,2.3,1.4C34.3,20.4,35.8,19.1,35.8,16.4z M30.2,16.3v-0.1c0-1.6,0.9-2.6,1.9-2.6s1.9,1,1.9,2.6v0.1   c0,1.6-0.8,2.6-1.9,2.6C31.1,18.9,30.2,17.9,30.2,16.3z"/>
        <path class="st1" d="M43.2,19.2l-0.9-1.1c-0.5,0.5-1.1,0.9-1.9,0.9c-1.1,0-1.9-0.7-2-2.1h5.1c0-0.2,0-0.5,0-0.6   c0-2.4-1.1-4.2-3.3-4.2c-2,0-3.4,1.7-3.4,4.1v0.1c0,2.5,1.6,4.1,3.7,4.1C41.6,20.4,42.5,20,43.2,19.2z M40.1,13.5   c1,0,1.6,0.9,1.7,2.2h-3.4C38.5,14.4,39.2,13.5,40.1,13.5z"/>
        <path class="st1" d="M48.5,12.1c-1.1,0-1.7,0.6-2.2,1.3v-1.2h-1.7v8h1.7v-4.9c0-1.1,0.6-1.8,1.5-1.8c0.9,0,1.4,0.6,1.4,1.7v4.9H51   v-5.4C51,13.2,50.1,12.1,48.5,12.1z"/>
        <path class="st1" d="M57.9,18L57.9,18c0-1.3-0.9-1.9-2.2-2.4c-0.9-0.4-1.6-0.7-1.6-1.2v0c0-0.4,0.4-0.8,1-0.8s1.3,0.3,1.9,0.7   l0.7-1.3c-0.8-0.5-1.7-0.9-2.6-0.9c-1.5,0-2.7,0.9-2.7,2.3v0c0,1.3,1,1.9,2.2,2.4c1,0.4,1.6,0.7,1.6,1.2v0c0,0.5-0.4,0.9-1.1,0.9   c-0.7,0-1.5-0.3-2.2-0.9l-0.8,1.2c0.9,0.8,2,1.1,3,1.1C56.7,20.4,57.9,19.6,57.9,18z"/>
        <path class="st1" d="M63.2,20v-1.4c-0.3,0.1-0.6,0.2-0.9,0.2c-0.5,0-0.9-0.3-0.9-0.9v-4.3h1.8v-1.5h-1.8v-2.2h-1.7v2.2h-0.9   l0.3,1.5h0.6v4.6c0,1.6,0.9,2.1,2.1,2.1C62.4,20.4,62.8,20.3,63.2,20z"/>
        <path class="st1" d="M69.8,13c-0.5-0.5-1.3-0.8-2.4-0.8c-1.1,0-1.9,0.3-2.7,0.6l0.5,1.4c0.5-0.2,1.2-0.5,1.9-0.5   c1.1,0,1.7,0.6,1.7,1.6v0.3c-0.5-0.2-1.1-0.3-1.9-0.3c-1.7,0-2.9,0.9-2.9,2.6v0.1c0,1.6,1.1,2.5,2.5,2.5c1.1,0,1.8-0.5,2.2-1.1v1   h1.7v-4.9C70.6,14.3,70.3,13.5,69.8,13z M68.9,17.6c0,0.9-0.8,1.6-1.7,1.6c-0.7,0-1.3-0.5-1.3-1.3v0c0-0.9,0.6-1.3,1.6-1.3   c0.6,0,1.1,0.1,1.5,0.3V17.6z"/>
        <path class="st1" d="M77.9,19.2l-0.9-1.1c-0.5,0.5-0.9,0.8-1.6,0.8c-1.2,0-2-1.1-2-2.6v-0.1c0-1.5,0.8-2.6,1.9-2.6   c0.7,0,1.2,0.4,1.6,0.8l1-1.3c-0.7-0.7-1.4-1.1-2.6-1.1c-2.1,0-3.7,1.7-3.7,4.1v0.1c0,2.4,1.5,4.1,3.6,4.1   C76.4,20.4,77.2,19.9,77.9,19.2z"/>
        <g>
		<polygon class="st1" points="83.1,16.1 81.9,17.4 83.5,20.3 85.5,20.3   "/>
            <polygon class="st1" points="83.4,12.2 80.7,15.8 80.7,9.3 78.9,9.3 78.9,20.3 80.7,20.3 80.7,18 85.4,12.2   "/>
	</g>
</g>
</svg>