<?xml version="1.0" encoding="utf-8"?>
<!-- Generator: Adobe Illustrator 26.3.1, SVG Export Plug-In . SVG Version: 6.00 Build 0)  -->
<svg version="1.1" id="Layer_1" xmlns="http://www.w3.org/2000/svg" xmlns:xlink="http://www.w3.org/1999/xlink" x="0px" y="0px"
	 viewBox="0 0 140 40" style="enable-background:new 0 0 140 40;" xml:space="preserve">
<style type="text/css">
	.st0{fill:#FFFFFF;}
	.st1{fill:#E5E5E5;}
	.st2{fill:#AFD135;}
</style>
<g>
	<path class="st0" d="M37.2912,29.3929c-4.9354-8.5458-9.8692-17.0923-14.8038-25.6381c-0.41-0.7097-0.8072-1.4257-1.2323-2.1259
		c-0.6169-1.0166-1.9919-1.0221-2.6287-0.0214c-0.0571,0.0888-0.107,0.1824-0.1602,0.2736
		c-3.9109,6.7727-7.8218,13.5454-11.7327,20.3189c-1.3932,2.4138-2.7849,4.8291-4.1805,7.2421
		c-0.161,0.2799-0.2847,0.5662-0.2759,0.9222c-0.0111,0.1895,0.042,0.3933,0.1253,0.59c0.1808,0.4298,0.5321,0.6685,0.9357,0.8659
		c3.7127,1.8191,7.4221,3.6437,11.1332,5.4667c1.5645,0.7692,3.1322,1.5328,4.6935,2.3083c0.5265,0.2617,1.0364,0.2688,1.555-0.0063
		c0.2101-0.111,0.4266-0.2109,0.6399-0.3156c3.9125-1.9221,7.825-3.8443,11.7366-5.7664c1.2093-0.5947,2.4185-1.1886,3.6254-1.7881
		c0.5908-0.2926,0.8778-0.7811,0.8738-1.4368C37.5933,29.9551,37.4522,29.6712,37.2912,29.3929z M22.0925,7.5705
		c3.8562,6.672,7.7084,13.3456,11.559,20.0207c0.0833,0.1451,0.2085,0.2775,0.2054,0.4631
		c-0.1705-0.0722-0.3426-0.1388-0.5099-0.2173c-0.6693-0.3132-1.3354-0.6336-2.0054-0.946
		c-3.3479-1.5621-6.6958-3.1251-10.0468-4.6809c-0.2204-0.1031-0.3426-0.2284-0.3045-0.4782
		c0.0079-0.0523,0.0008-0.1055,0.0008-0.1586c0-5.1225,0-10.2443,0.0008-15.3668c0-0.1578,0.0095-0.3164,0.0143-0.475
		C21.4066,6.3216,21.7365,6.9544,22.0925,7.5705z M6.8169,26.558c3.9172-6.7901,7.8376-13.5771,11.758-20.3649
		c0.0856-0.1483,0.1808-0.2902,0.272-0.4353c0.0056,1.2013,0.0151,2.4027,0.0159,3.604c0.0016,4.0941-0.0032,8.1873,0.0071,12.2814
		c0.0008,0.3085-0.0856,0.475-0.3759,0.6003c-0.739,0.3188-1.463,0.6716-2.1917,1.0134c-2.7135,1.2711-5.4254,2.5454-8.139,3.8149
		c-0.7287,0.341-1.4638,0.6701-2.1957,1.0047C6.2095,27.5476,6.5275,27.06,6.8169,26.558z M30.7247,32.1659
		c-3.4946,1.7191-6.9915,3.4327-10.4846,5.1558c-0.2078,0.1023-0.3727,0.1205-0.5884,0.0143
		c-4.535-2.2369-9.0739-4.4668-13.6112-6.6982c-0.0706-0.0349-0.1372-0.0785-0.2054-0.1174
		c0.1269-0.069,0.2514-0.1451,0.3822-0.2062c1.4828-0.693,2.9673-1.3821,4.4501-2.0752c2.9649-1.3869,5.9306-2.773,8.8923-4.1678
		c0.2625-0.1237,0.4853-0.1324,0.7493-0.0079c2.639,1.2442,5.2811,2.4804,7.9233,3.7166c1.3988,0.6542,2.8023,1.2989,4.1979,1.9594
		c0.5352,0.2537,1.0871,0.4742,1.5931,0.7882C32.9244,31.0739,31.8269,31.6243,30.7247,32.1659z"/>
	<path class="st0" d="M101.0128,24.3711c1.1271-1.7377,2.6645-2.7378,4.7745-2.6921c2.1027,0.0456,3.6433,1.0116,4.6323,2.9016
		c0.1397-0.1863,0.2579-0.3433,0.3755-0.5007c1.8179-2.4342,4.5132-2.7544,6.6481-2.1455c1.8084,0.5158,2.8899,1.7713,3.4026,3.5479
		c0.1841,0.638,0.2647,1.2922,0.2643,1.9569c-0.0014,2.7482-0.0005,5.4964-0.0006,8.2446c0,0.1585,0.0026,0.3169-0.0474,0.4709
		c-0.161,0.4958-0.6207,0.7821-1.1781,0.7318c-0.4971-0.0448-0.905-0.4533-0.9514-0.9601c-0.012-0.1311-0.0064-0.264-0.0064-0.3961
		c-0.0003-2.3915,0.001-4.7829-0.0011-7.1744c-0.0006-0.6753-0.0506-1.3461-0.2346-2.0004
		c-0.4471-1.5899-1.6199-2.5359-3.2224-2.6551c-2.1968-0.1634-4.0077,1.1884-4.3756,3.6144
		c-0.0636,0.4196-0.0747,0.8415-0.0746,1.2647c0.0005,2.3122,0.0003,4.6244,0.0001,6.9366c0,0.1189,0.0043,0.2382-0.003,0.3567
		c-0.033,0.5317-0.4338,0.9603-0.9429,1.0128c-0.5888,0.0607-1.0574-0.2478-1.2111-0.7919
		c-0.0477-0.1687-0.0437-0.3396-0.0437-0.5111c-0.0001-2.4179-0.0004-4.8358,0.0001-7.2537
		c0.0001-0.5955-0.0335-1.1853-0.1685-1.7701c-0.7803-3.3794-4.5805-3.501-6.2828-1.8177
		c-0.9347,0.9243-1.3604,2.0615-1.4083,3.3481c-0.032,0.8577-0.0132,1.7173-0.0139,2.5761
		c-0.0014,1.6251-0.0004,3.2503-0.0005,4.8754c0,0.1057,0.0037,0.2116-0.0021,0.317c-0.0328,0.6-0.4555,1.0178-1.0399,1.0308
		c-0.6108,0.0136-1.0825-0.3808-1.1505-0.9684c-0.0136-0.1175-0.0072-0.2375-0.0072-0.3564
		c-0.0003-4.1091-0.0003-8.2181-0.0002-12.3272c0-0.1057-0.0055-0.212,0.0032-0.317c0.0494-0.5943,0.5229-1.0331,1.1047-1.0278
		c0.6091,0.0056,1.0727,0.4561,1.0888,1.0766c0.0117,0.4486,0.0023,0.8977,0.0023,1.3465
		C100.966,24.3337,100.9894,24.3524,101.0128,24.3711z"/>
	<path class="st0" d="M65.1322,23.0461c-0.0515-2.6207-1.2719-4.4636-3.6651-5.5206c-1.1403-0.5043-2.3519-0.6938-3.5913-0.7034
		c-1.5193-0.0111-3.0386-0.0024-4.5579-0.0024c-0.6732,0-1.3472-0.0079-2.0213,0.0024c-0.636,0.0103-1.0935,0.4686-1.1181,1.1006
		c-0.0048,0.1189-0.0016,0.2379-0.0016,0.3568v17.2001c0,0.1324-0.0056,0.2649,0.0048,0.3965
		c0.0428,0.5186,0.4631,0.9579,0.9587,1.0094c0.5812,0.0603,1.1022-0.2791,1.2505-0.8128c0.0436-0.1554,0.0333-0.3148,0.0333-0.4726
		c0.0008-1.7834,0.0008-3.5667,0.0008-5.3501c0-0.1063,0.0056-0.2117,0-0.3172c-0.0095-0.157,0.0666-0.2133,0.2133-0.2054
		c0.0928,0.0048,0.1856,0,0.2775,0c1.5328,0,3.0656,0.0111,4.5976-0.0032c1.3203-0.0127,2.6009-0.249,3.8165-0.7795
		c1.0348-0.452,1.9309-1.0895,2.6184-1.9959C64.8229,25.7946,65.1607,24.479,65.1322,23.0461z M60.6258,26.9372
		c-0.9048,0.4813-1.8809,0.7042-2.8943,0.7216c-1.6628,0.0278-3.3273,0.0135-4.9909,0.0143c-0.31,0-0.3148-0.0071-0.3148-0.3418
		c-0.0016-1.3472-0.0008-2.6937-0.0008-4.0409v-3.9212c0-0.0928,0.004-0.1848,0.0008-0.2775
		c-0.004-0.134,0.0642-0.1911,0.1927-0.1903c0.0793,0,0.1578-0.0024,0.2371-0.0024c1.4789,0,2.9577-0.0056,4.4366,0.0024
		c0.927,0.0048,1.8476,0.0761,2.731,0.3878c1.0602,0.3743,1.9332,0.9841,2.4209,2.03
		C63.2243,22.9938,63.0911,25.6249,60.6258,26.9372z"/>
	<path class="st0" d="M89.3298,37.0591c-2.0227-0.0404-3.8628-0.652-5.5372-1.7811c-0.3621-0.2442-0.5379-0.5766-0.4736-1.0136
		c0.0577-0.3926,0.3003-0.6404,0.6699-0.7571c0.3241-0.1023,0.6195-0.0257,0.8993,0.1665c0.612,0.4205,1.2634,0.7713,1.961,1.0277
		c1.1187,0.4112,2.2658,0.6288,3.4597,0.4285c0.6532-0.1096,1.2426-0.3626,1.7004-0.8614c0.8305-0.905,0.6877-2.2289-0.315-2.9336
		c-0.5476-0.3848-1.1692-0.6088-1.7993-0.8108c-0.8426-0.2702-1.7045-0.477-2.5401-0.7706
		c-0.4994-0.1755-0.9879-0.3748-1.4494-0.6357c-2.1985-1.2427-2.6056-4.0362-0.8523-5.8679
		c0.7209-0.7531,1.6236-1.1673,2.633-1.3598c1.5079-0.2874,2.9722-0.0635,4.4085,0.4163c0.5266,0.1759,1.0358,0.3963,1.5276,0.6561
		c0.1784,0.0943,0.3339,0.2133,0.4517,0.3776c0.246,0.3429,0.263,0.7816,0.0301,1.1142c-0.244,0.3484-0.5886,0.4735-1.0039,0.4098
		c-0.1726-0.0265-0.3226-0.1117-0.4743-0.1937c-0.9257-0.5005-1.8985-0.8653-2.9482-0.9978
		c-0.7298-0.0921-1.4531-0.0723-2.1468,0.2048c-0.6414,0.2562-1.1425,0.6635-1.3433,1.3564
		c-0.2091,0.7214-0.0309,1.3296,0.5591,1.8061c0.3427,0.2767,0.7338,0.4685,1.1381,0.6349
		c0.6239,0.2568,1.2689,0.4514,1.9138,0.6466c0.8092,0.245,1.6171,0.4943,2.3823,0.8606c0.5754,0.2754,1.1128,0.6061,1.5574,1.0733
		c0.5414,0.5687,0.835,1.2431,0.8824,2.026c0.0672,1.1078-0.1638,2.1301-0.8817,3.0052c-0.6991,0.8522-1.6256,1.3295-2.678,1.5889
		C90.4934,37.0153,89.9165,37.074,89.3298,37.0591z"/>
	<path class="st0" d="M68.8149,25.5263c0.4848-0.823,1.0041-1.5662,1.6774-2.197c0.8077-0.7567,1.7273-1.3013,2.8361-1.4783
		c0.1815-0.029,0.3679-0.0408,0.5518-0.0391c0.6179,0.0059,1.0198,0.3735,1.0858,0.9807c0.0656,0.604-0.2856,1.0996-0.8745,1.2293
		c-0.1159,0.0255-0.2344,0.0389-0.3514,0.0592c-2.2838,0.3962-3.7746,1.7164-4.5159,3.8961
		c-0.274,0.8058-0.3988,1.6416-0.4021,2.4924c-0.0066,1.7038-0.0055,3.4077-0.007,5.1115c-0.0002,0.1849,0.0014,0.368-0.057,0.5484
		c-0.1722,0.5319-0.6152,0.8148-1.1953,0.7558c-0.508-0.0516-0.9105-0.4779-0.9486-1.0087
		c-0.0075-0.1052-0.0034-0.2112-0.0034-0.3169c-0.0001-4.1077-0.0001-8.2155-0.0001-12.3232c0-0.0792-0.0016-0.1586,0.0009-0.2377
		c0.0203-0.6408,0.4905-1.1118,1.1043-1.1069c0.6193,0.0049,1.0845,0.4668,1.0958,1.1147c0.012,0.6866,0.003,1.3736,0.0032,2.0604
		C68.8149,25.22,68.8149,25.3732,68.8149,25.5263z"/>
	<path class="st0" d="M79.9497,29.3804c0,2.0481,0,4.0962,0,6.1443c0,0.1057,0.003,0.2116-0.0014,0.3171
		c-0.0271,0.6426-0.459,1.0536-1.0979,1.047c-0.6258-0.0065-1.0614-0.4383-1.0816-1.0733
		c-0.0025-0.0792-0.0011-0.1586-0.0011-0.2378c0-4.1226-0.0002-8.2453,0.0006-12.3679c0-0.1843-0.0161-0.3704,0.0406-0.551
		c0.1601-0.5097,0.6698-0.832,1.2026-0.7598c0.5214,0.0706,0.9062,0.4884,0.9356,1.0201c0.0066,0.1186,0.0025,0.2378,0.0025,0.3567
		C79.9497,25.3106,79.9497,27.3455,79.9497,29.3804z"/>
	<path class="st0" d="M77.5546,20.6152c-0.1057-1.2404,1.0589-1.6034,1.8873-1.2743c0.4431,0.1761,0.6855,0.5212,0.7134,1.0036
		c0.0076,0.1315,0.0042,0.2639,0.0013,0.3958c-0.0134,0.6049-0.3776,1.0389-0.9804,1.171c-0.6332,0.1387-1.2739-0.138-1.5191-0.6538
		C77.5575,21.0479,77.5434,20.8263,77.5546,20.6152z"/>
	<path class="st1" d="M34.0234,30.5276c-0.5059-0.314-1.0578-0.5345-1.5931-0.7882c-1.3956-0.6605-2.7992-1.3052-4.1979-1.9594
		c-2.6422-1.2362-5.2843-2.4725-7.9233-3.7166c-0.2641-0.1245-0.4869-0.1158-0.7493,0.0079
		c-2.9617,1.3948-5.9274,2.7809-8.8923,4.1678c-1.4828,0.693-2.9673,1.3821-4.4501,2.0752
		c-0.1308,0.0611-0.2553,0.1372-0.3822,0.2062c0.0325-0.2268,0.2355-0.272,0.3941-0.3465c1.8135-0.8572,3.631-1.7072,5.4484-2.5549
		c1.8421-0.8596,3.6833-1.7199,5.5238-2.5819c0.7771-0.364,1.5606-0.7137,2.3353-1.0824c0.2815-0.134,0.5582-0.1332,0.839,0.0032
		c1.7104,0.8279,3.4415,1.6121,5.1622,2.4193c2.3051,1.0832,4.6103,2.168,6.9242,3.2321c0.4322,0.1982,0.8477,0.4306,1.2862,0.6145
		C33.8823,30.2802,34.0147,30.3523,34.0234,30.5276z"/>
	<path class="st1" d="M33.8569,28.0543c-0.1919,0.1007-0.3616,0.0095-0.5273-0.069c-2.5882-1.2307-5.1939-2.4233-7.7861-3.6476
		c-1.3496-0.6375-2.6984-1.2767-4.0608-1.8865c-0.4441-0.1982-0.6479-0.4599-0.6471-0.9579
		c0.0103-5.0599,0.0056-10.1206,0.0095-15.1805c0.0008-0.2022-0.0484-0.4306,0.161-0.5812
		c-0.0048,0.1586-0.0143,0.3172-0.0143,0.475c-0.0008,5.1225-0.0008,10.2443-0.0008,15.3668c0,0.0531,0.0071,0.1063-0.0008,0.1586
		c-0.0381,0.2498,0.0841,0.3751,0.3045,0.4782c3.3511,1.5558,6.6989,3.1187,10.0468,4.6809
		c0.6701,0.3124,1.3361,0.6328,2.0054,0.946C33.5144,27.9156,33.6864,27.9822,33.8569,28.0543z"/>
	<path class="st1" d="M18.9881,21.5608c0.0008,0.4282-0.1768,0.6843-0.5551,0.8612c-1.398,0.655-2.7992,1.3036-4.1964,1.961
		c-1.8865,0.8873-3.7785,1.7635-5.6657,2.6493c-0.7049,0.3315-1.4043,0.674-2.1196,0.9801
		c-0.1523,0.0658-0.3053,0.1768-0.4837,0.0642c0.7319-0.3346,1.467-0.6637,2.1957-1.0047c2.7135-1.2695,5.4254-2.5438,8.139-3.8149
		c0.7287-0.3418,1.4527-0.6946,2.1917-1.0134c0.2902-0.1253,0.3767-0.2918,0.3759-0.6003
		c-0.0103-4.0941-0.0056-8.1873-0.0071-12.2814c-0.0008-1.2013-0.0103-2.4027-0.0159-3.604
		c0.1562,0.1427,0.1348,0.3362,0.1348,0.5178C18.9849,11.3704,18.9825,16.4652,18.9881,21.5608z"/>
	<path class="st2" d="M34.8402,30.1486c-0.2752,0.1189-0.5448,0.2522-0.8168,0.379c-0.5059-0.314-1.0578-0.5345-1.5931-0.7882
		c-1.3956-0.6605-2.7992-1.3052-4.1979-1.9594c-2.6422-1.2362-5.2843-2.4725-7.9233-3.7166
		c-0.2641-0.1245-0.4869-0.1158-0.7493,0.0079c-2.9617,1.3948-5.9274,2.7809-8.8923,4.1678
		c-1.4828,0.693-2.9673,1.3821-4.4501,2.0752c-0.1308,0.0611-0.2553,0.1372-0.3822,0.2062
		c-0.3394-0.1388-0.6693-0.2966-1.0063-0.5019c0.3767-0.6605,0.7216-1.3219,1.1387-1.942c0.7319-0.3346,1.467-0.6637,2.1957-1.0047
		c2.7135-1.2695,5.4254-2.5438,8.139-3.8149c0.7287-0.3418,1.4527-0.6946,2.1917-1.0134c0.2902-0.1253,0.3767-0.2918,0.3759-0.6003
		c-0.0103-4.0941-0.0056-8.1873-0.0071-12.2814c-0.0008-1.2013-0.0103-2.4027-0.0159-3.604
		c0.3473-0.6193,0.6946-1.2378,1.0776-1.9198c0.3973,0.6597,0.7652,1.2616,1.0816,1.8936c-0.0048,0.1586-0.0143,0.3172-0.0143,0.475
		c-0.0008,5.1225-0.0008,10.2443-0.0008,15.3668c0,0.0531,0.0071,0.1063-0.0008,0.1586c-0.0381,0.2498,0.0841,0.3751,0.3045,0.4782
		c3.3511,1.5558,6.6989,3.1187,10.0468,4.6809c0.6701,0.3124,1.3361,0.6328,2.0054,0.946c0.1673,0.0785,0.3394,0.1451,0.5099,0.2173
		c0.0396,0.0325,0.0928,0.0563,0.1174,0.0975c0.3227,0.5543,0.6383,1.1133,0.965,1.6644
		C35.0368,29.9797,35.0178,30.0724,34.8402,30.1486z"/>
	<g>
		<path class="st0" d="M61.4947,3.3423H59.641c-0.11,0-0.2042,0.09-0.2042,0.1951v5.2828l-6.048-5.0426
			c-0.3927-0.3302-0.8326-0.4953-1.2724-0.4953c-0.4084,0-1.0839,0.1501-1.0839,1.2006v7.1587c0,0.1051,0.0943,0.1951,0.2042,0.1951
			h1.8537c0.11,0,0.2042-0.09,0.2042-0.1951V6.3439l6.1108,5.1027c0.3613,0.3152,0.754,0.4652,1.1782,0.4652
			c0.4241,0,1.1153-0.1651,1.1153-1.2607V3.5374C61.6989,3.4174,61.6046,3.3423,61.4947,3.3423z"/>
		<path class="st0" d="M72.8523,3.3423h-1.8223c-0.11,0-0.2042,0.09-0.2042,0.1951v5.688c0,0.4652-0.6127,0.7054-1.8065,0.7054
			h-2.4977c-1.2253,0-1.838-0.2401-1.838-0.7054v-5.688c0-0.1051-0.0943-0.1951-0.2042-0.1951h-1.8537
			c-0.11,0-0.2042,0.09-0.2042,0.1951v5.763c0,0.4052,0.0785,0.7504,0.2042,1.0205c0.1414,0.2851,0.3299,0.5103,0.5498,0.7054
			s0.487,0.3452,0.7855,0.4502c0.2828,0.1051,0.5969,0.1801,0.8954,0.2401c0.3142,0.06,0.6284,0.09,0.9583,0.09
			c0.3142,0.015,0.6127,0.015,0.8954,0.015h2.0265c1.4767,0,2.5449-0.1951,3.2361-0.6003c0.7069-0.4202,1.0682-1.0656,1.0682-1.936
			v-5.748C73.0565,3.4174,72.9623,3.3423,72.8523,3.3423z"/>
		<path class="st0" d="M83.5188,5.0382V3.5224c0-0.1051-0.0943-0.1951-0.2042-0.1951h-9.3469c-0.11,0-0.2042,0.09-0.2042,0.1951
			v1.5158c0,0.1051,0.0943,0.1951,0.2042,0.1951h3.5345v6.4083c0,0.1051,0.0943,0.1951,0.2042,0.1951h1.8537
			c0.11,0,0.2042-0.09,0.2042-0.1951V5.2333h3.5502C83.4402,5.2333,83.5188,5.1433,83.5188,5.0382z"/>
		<path class="st0" d="M88.2629,3.9126c-0.3142-0.4052-0.7226-0.6153-1.2096-0.6153c-0.487,0-0.8954,0.2101-1.1939,0.6303
			l-5.5139,7.609c-0.0471,0.06-0.0471,0.1351-0.0157,0.1951c0.0314,0.06,0.11,0.1051,0.1728,0.1051h2.1836
			c0.0628,0,0.1414-0.03,0.1728-0.09l1.4295-2.1011h5.4825l1.4609,2.1011c0.0314,0.06,0.0943,0.09,0.1728,0.09h2.0736
			c0.0785,0,0.1414-0.045,0.1728-0.1051c0.0314-0.06,0.0314-0.1351-0.0157-0.1951L88.2629,3.9126z M85.6395,7.7246l1.3667-1.876
			l1.3981,1.876H85.6395z"/>
		<path class="st0" d="M104.6475,3.3423h-1.8537c-0.11,0-0.2042,0.09-0.2042,0.1951v5.2828l-6.048-5.0426
			c-0.3927-0.3302-0.8326-0.4953-1.2881-0.4953c-0.4084,0-1.0682,0.1501-1.0682,1.2006v7.1587c0,0.1051,0.0943,0.1951,0.2042,0.1951
			h1.8537c0.11,0,0.2042-0.09,0.2042-0.1951V6.3439l6.1108,5.1027c0.3613,0.3152,0.754,0.4652,1.1782,0.4652
			c0.4241,0,1.1153-0.1651,1.1153-1.2607V3.5374C104.8517,3.4174,104.7574,3.3423,104.6475,3.3423z"/>
		<path class="st0" d="M107.6165,3.3423h-1.8537c-0.11,0-0.2042,0.09-0.2042,0.1951v8.1042c0,0.1051,0.0943,0.1951,0.2042,0.1951
			h1.8537c0.11,0,0.2042-0.09,0.2042-0.1951V3.5374C107.8207,3.4174,107.7265,3.3423,107.6165,3.3423z"/>
		<path class="st2" d="M121.4876,11.5066l-4.8698-3.917l4.8698-3.9471c0.0628-0.06,0.0943-0.1351,0.0628-0.2101
			s-0.11-0.1201-0.1885-0.1201h-2.4663c-0.0471,0-0.0943,0.015-0.1257,0.045l-3.7073,2.9716l-3.7388-3.0016
			c-0.0314-0.03-0.0785-0.045-0.1257-0.045h-2.4663c-0.0785,0-0.1571,0.045-0.1885,0.1201c-0.0314,0.075,0,0.1651,0.0628,0.2101
			l4.8698,3.9471l-4.8698,3.917c-0.0628,0.045-0.0943,0.1351-0.0628,0.2101c0.0314,0.075,0.11,0.1201,0.1885,0.1201h2.592
			c0.0471,0,0.0943-0.015,0.1257-0.045l3.5974-2.9415l3.6131,2.9415c0.0314,0.03,0.0785,0.045,0.1257,0.045h2.5763
			c0.0785,0,0.1571-0.045,0.1885-0.1201C121.5819,11.6417,121.5504,11.5516,121.4876,11.5066z"/>
		<g>
			<path class="st0" d="M123.4198,11.2815c0,0.3752-0.3142,0.6754-0.7226,0.6754c-0.4084,0-0.7226-0.3002-0.7226-0.6754
				s0.3142-0.6754,0.7226-0.6754C123.1056,10.6061,123.4198,10.9063,123.4198,11.2815z M122.1474,11.2815
				c0,0.3002,0.2356,0.5403,0.5498,0.5403c0.2985,0,0.5341-0.2401,0.5341-0.5403s-0.2356-0.5403-0.5498-0.5403
				C122.383,10.7412,122.1474,10.9813,122.1474,11.2815z M122.5872,11.6267h-0.1571v-0.6754c0.0628-0.015,0.1571-0.015,0.2671-0.015
				c0.1257,0,0.1885,0.015,0.2356,0.06c0.0471,0.03,0.0785,0.075,0.0785,0.1501c0,0.075-0.0628,0.1351-0.1414,0.1651v0.015
				c0.0628,0.015,0.11,0.075,0.1257,0.1651c0.0157,0.1051,0.0314,0.1351,0.0471,0.1651H122.87
				c-0.0157-0.03-0.0314-0.075-0.0628-0.1651c-0.0157-0.075-0.0628-0.1051-0.1414-0.1051h-0.0785V11.6267z M122.5872,11.2515h0.0785
				c0.0943,0,0.1571-0.03,0.1571-0.1051c0-0.06-0.0471-0.1051-0.1571-0.1051c-0.0471,0-0.0785,0-0.0943,0.015v0.1951H122.5872z"/>
		</g>
	</g>
</g>
</svg>
